<svg xmlns="http://www.w3.org/2000/svg" width="85.954" height="98.232" viewBox="0 0 85.954 98.232">
  <path id="database-solid" d="M85.954,14.033V22.8c0,7.729-19.25,14.033-42.977,14.033S0,30.533,0,22.8V14.033C0,6.3,19.25,0,42.977,0S85.954,6.3,85.954,14.033Zm0,19.734V53.5c0,7.729-19.25,14.033-42.977,14.033S0,61.231,0,53.5V33.767c9.233,6.359,26.133,9.319,42.977,9.319S76.72,40.126,85.954,33.767Zm0,30.7V84.2c0,7.729-19.25,14.033-42.977,14.033S0,91.929,0,84.2V64.465c9.233,6.359,26.133,9.319,42.977,9.319S76.72,70.824,85.954,64.465Z" fill="#fff"/>
</svg>
