<svg xmlns="http://www.w3.org/2000/svg" width="85.954" height="85.954" viewBox="0 0 85.954 85.954">
  <path id="js-square-brands" d="M76.744,32H9.209A9.212,9.212,0,0,0,0,41.209v67.535a9.212,9.212,0,0,0,9.209,9.209H76.744a9.212,9.212,0,0,0,9.209-9.209V41.209A9.212,9.212,0,0,0,76.744,32ZM46.776,99.036c0,8.365-4.912,12.183-12.068,12.183-6.466,0-10.207-3.338-12.126-7.387l6.581-3.972c1.266,2.245,2.417,4.144,5.2,4.144,2.648,0,4.336-1.036,4.336-5.084V71.466h8.077v27.57Zm19.109,12.183c-7.5,0-12.356-3.569-14.716-8.25l6.581-3.8c1.727,2.82,3.991,4.912,7.962,4.912,3.338,0,5.487-1.669,5.487-3.991,0-2.763-2.187-3.741-5.89-5.372l-2.015-.863c-5.833-2.475-9.689-5.6-9.689-12.183,0-6.063,4.624-10.667,11.819-10.667,5.142,0,8.826,1.784,11.473,6.466L70.6,81.5c-1.381-2.475-2.878-3.453-5.2-3.453-2.36,0-3.856,1.5-3.856,3.453,0,2.417,1.5,3.4,4.969,4.912l2.015.863c6.869,2.935,10.725,5.948,10.725,12.7C79.258,107.229,73.54,111.219,65.885,111.219Z" transform="translate(0 -32)" fill="#fff"/>
</svg>
