<svg xmlns="http://www.w3.org/2000/svg" width="122.791" height="64.58" viewBox="0 0 122.791 64.58">
  <path id="php-brands" d="M61.4,90.923c32.885,0,58.172,13.852,58.172,29.067S94.261,149.057,61.4,149.057c-32.885,0-58.172-13.852-58.172-29.067S28.53,90.923,61.4,90.923m0-3.223C27.494,87.7,0,102.147,0,119.99s27.494,32.29,61.4,32.29,61.4-14.447,61.4-32.29S95.3,87.7,61.4,87.7ZM41.864,117.4c-1.516,7.77-6.869,6.965-13.449,6.965l2.628-13.545c7.291,0,12.241-.787,10.821,6.581ZM18.687,138.083h7.041l1.669-8.6c7.885,0,12.778.576,17.306-3.665,5.008-4.6,6.312-12.8,2.744-16.9-1.861-2.149-4.854-3.2-8.922-3.2H24.961ZM54.316,97.1h7l-1.669,8.6c6.044,0,11.646-.441,14.351,2.053,2.84,2.609,1.477,5.948-1.592,21.7h-7.1c2.955-15.234,3.511-16.5,2.437-17.651-1.036-1.113-3.4-.883-9.094-.883l-3.607,18.534h-7L54.316,97.1ZM96.89,117.4c-1.535,7.885-7.041,6.965-13.449,6.965l2.629-13.545c7.329,0,12.241-.787,10.821,6.581ZM73.713,138.083h7.06l1.669-8.6c8.288,0,12.874.48,17.306-3.665,5.008-4.6,6.312-12.8,2.744-16.9-1.861-2.149-4.854-3.2-8.922-3.2H80.006Z" transform="translate(0 -87.7)" fill="#fff"/>
</svg>
