<svg xmlns="http://www.w3.org/2000/svg" width="122.79" height="92.101" viewBox="0 0 122.79 92.101">
  <path id="sass-brands" d="M57.914,85.633C57.857,85.749,57.8,85.841,57.914,85.633Zm47.8-16.692a25.165,25.165,0,0,0-11.128,2.59c-1.132-2.283-2.3-4.278-2.494-5.775a15.416,15.416,0,0,1-.211-4.854,40.878,40.878,0,0,1,1.458-5.219c-.019-.211-.269-1.266-2.744-1.285s-4.6.48-4.852,1.132A23.566,23.566,0,0,0,84.725,59.2c-.441,2.245-4.948,10.265-7.5,14.447a14.9,14.9,0,0,1-1.708-4.221,15.415,15.415,0,0,1-.211-4.854,40.877,40.877,0,0,1,1.458-5.219c-.019-.211-.269-1.266-2.742-1.285s-4.6.48-4.854,1.132-.518,2.187-1.017,3.665-6.5,14.831-8.073,18.3c-.806,1.765-1.5,3.185-2,4.144-.077.153-.134.249-.173.326.058-.1.1-.192.1-.153-.422.825-.672,1.285-.672,1.285v.019c-.326.614-.691,1.17-.863,1.17a7.959,7.959,0,0,1,.058-3.818c.9-4.643,3.031-11.857,3.012-12.106-.019-.134.4-1.381-1.4-2.053a2.258,2.258,0,0,0-2.533.422c-.153,0-.269.384-.269.384s1.938-8.135-3.72-8.135c-3.53,0-8.442,3.876-10.855,7.387-1.516.825-4.8,2.609-8.25,4.509-1.324.729-2.686,1.477-3.972,2.187-.1-.1-.173-.192-.269-.288C21.407,69.114,8.729,63.934,9.266,54.092,9.458,50.5,10.7,41.083,33.646,29.649c18.8-9.363,33.835-6.792,36.423-1.074,3.722,8.154-8.037,23.33-27.563,25.517-7.442.825-11.354-2.053-12.333-3.127-1.017-1.132-1.17-1.19-1.554-.978-.633.345-.23,1.343,0,1.938.576,1.516,2.974,4.2,7.059,5.545,3.588,1.17,12.314,1.823,22.864-2.264,11.853-4.566,21.08-17.287,18.374-27.935-2.755-10.821-20.7-14.37-37.664-8.346C29.143,22.511,18.21,28.152,10.346,35.5,1,44.249-.49,51.866.124,55.051c2.185,11.3,17.761,18.668,23.994,24.117-.307.173-.595.326-.863.48-3.125,1.554-15,7.77-17.972,14.332-3.358,7.444.556,12.778,3.125,13.507,8.018,2.226,16.228-1.784,20.638-8.365s3.876-15.176,1.842-19.09c-.019-.058-.058-.1-.077-.153.806-.48,1.631-.959,2.456-1.439,1.591-.94,3.145-1.8,4.507-2.552a29.8,29.8,0,0,0-1.612,8.173c-.345,4.221,1.4,9.689,3.665,11.838a4.027,4.027,0,0,0,2.953.959c2.648,0,3.837-2.187,5.159-4.8,1.631-3.185,3.07-6.888,3.07-6.888s-1.8,10.015,3.127,10.015c1.8,0,3.605-2.322,4.413-3.511V91.7s.038-.077.134-.23c.192-.288.288-.46.288-.46v-.058c.729-1.247,2.322-4.106,4.718-8.826,3.108-6.1,6.08-13.718,6.08-13.718a38.612,38.612,0,0,0,1.19,4.95A46.345,46.345,0,0,0,73.53,79.11c-.729,1-1.17,1.573-1.17,1.573a.059.059,0,0,0,.019.038c-.576.767-1.228,1.592-1.9,2.4-2.454,2.916-5.372,6.255-5.756,7.214a1.96,1.96,0,0,0,.537,2.628,4.664,4.664,0,0,0,3.01.48,13.3,13.3,0,0,0,4.509-1.036,15.771,15.771,0,0,0,3.874-2.034,8.661,8.661,0,0,0,3.722-7.636,15.89,15.89,0,0,0-1.4-5.41c.211-.307.441-.633.652-.959a102,102,0,0,0,6.732-11.631,38.61,38.61,0,0,0,1.19,4.95,33.84,33.84,0,0,0,2.185,4.931,21.09,21.09,0,0,0-6.541,8.461c-1.42,4.087-.307,5.928,1.784,6.351a6.437,6.437,0,0,0,3.281-.672,15.245,15.245,0,0,0,4.142-2.13c2.4-1.765,4.718-4.24,4.564-7.6a14.273,14.273,0,0,0-1.036-4.49,23.419,23.419,0,0,1,11.913-1.381c10.683,1.247,12.774,7.924,12.371,10.706a7.093,7.093,0,0,1-3.4,4.8c-.748.46-.978.633-.921.978.1.5.441.48,1.074.365a8.335,8.335,0,0,0,5.811-7.425c.307-6.523-5.965-13.7-17.076-13.641ZM23.37,96.7c-3.528,3.856-8.478,5.315-10.606,4.087-2.283-1.328-1.381-7,2.972-11.113a56.847,56.847,0,0,1,8.325-6.216c.518-.307,1.266-.767,2.187-1.324.153-.1.23-.134.23-.134.173-.115.365-.211.556-.326A15.314,15.314,0,0,1,23.37,96.7ZM49.148,79.168c-1.228,3.012-3.816,10.687-5.389,10.284-1.343-.345-2.168-6.2-.269-11.953a26.462,26.462,0,0,1,4.2-7.694c1.936-2.168,4.066-2.859,4.564-2,.672,1.132-2.341,9.478-3.108,11.358Zm21.3,10.169c-.518.269-1,.441-1.228.307-.173-.1.211-.46.211-.46s2.667-2.859,3.722-4.163c.614-.767,1.324-1.669,2.089-2.667,0,.1.019.192.019.307-.025,3.434-3.323,5.756-4.82,6.677ZM86.864,85.6c-.384-.269-.326-1.17.959-3.972a14.912,14.912,0,0,1,3.645-4.7A6.942,6.942,0,0,1,91.833,79c-.019,4.317-3.108,5.928-4.967,6.6Z" transform="translate(-0.003 -16.004)" fill="#fff"/>
</svg>
